M48
;GenerationSoftware,Autodesk,EAGLE,9.7.0*%
;CreationDate,2026-03-03T21:24:13Z*%
FMAT,2
ICI,OFF
METRIC,TZ,000.000
T3C0.800
T2C1.016
T1C1.300
%
G90
M71
T1
X33376Y10160
X38376Y10160
X46990Y10160
X51990Y10160
X62230Y6350
X21793Y28575
X62230Y11350
X21793Y23575
T2
X20320Y36830
X22860Y36830
X25400Y36830
X27940Y36830
X30480Y36830
X33020Y36830
X35560Y36830
X38100Y36830
X40640Y36830
X43180Y36830
X45720Y36830
X17780Y57150
X20320Y57150
X22860Y57150
X25400Y57150
X27940Y57150
X30480Y57150
X33020Y57150
X35560Y57150
X38100Y57150
X40640Y57150
X43180Y57150
X45720Y57150
X48260Y57150
X50800Y57150
X55880Y57150
X53340Y57150
X17780Y36830
X68580Y31750
X66040Y31750
X63500Y31750
X60960Y31750
X58420Y31750
X55880Y31750
X53340Y31750
X53340Y19050
X55880Y19050
X58420Y19050
X60960Y19050
X63500Y19050
X66040Y19050
X68580Y19050
X48260Y31750
X45720Y31750
X43180Y31750
X40640Y31750
X38100Y31750
X35560Y31750
X33020Y31750
X30480Y31750
X30480Y19050
X33020Y19050
X35560Y19050
X38100Y19050
X40640Y19050
X43180Y19050
X45720Y19050
X48260Y19050
T3
X22225Y14815
X22225Y9315
M30