G04 EAGLE Gerber RS-274X export*
G75*
%MOMM*%
%FSLAX34Y34*%
%LPD*%
%INBottom Copper*%
%IPPOS*%
%AMOC8*
5,1,8,0,0,1.08239X$1,22.5*%
G01*
G04 Define Apertures*
%ADD10C,1.879600*%
%ADD11R,2.032000X2.032000*%
%ADD12C,2.032000*%
%ADD13C,1.400000*%
%ADD14C,0.254000*%
G36*
X715892Y5902D02*
X715595Y5842D01*
X105151Y5842D01*
X104876Y5893D01*
X104621Y6057D01*
X104449Y6307D01*
X104389Y6604D01*
X104389Y593396D01*
X104440Y593671D01*
X104604Y593926D01*
X104854Y594098D01*
X105151Y594158D01*
X715595Y594158D01*
X715869Y594107D01*
X716125Y593943D01*
X716296Y593693D01*
X716357Y593396D01*
X716357Y6604D01*
X716305Y6329D01*
X716142Y6074D01*
X715892Y5902D01*
G37*
%LPC*%
G36*
X470662Y572262D02*
X481838Y572262D01*
X481838Y583438D01*
X480225Y583438D01*
X475838Y581621D01*
X472479Y578262D01*
X470662Y573875D01*
X470662Y572262D01*
G37*
G36*
X483362Y572262D02*
X494538Y572262D01*
X494538Y573875D01*
X492721Y578262D01*
X489362Y581621D01*
X484975Y583438D01*
X483362Y583438D01*
X483362Y572262D01*
G37*
G36*
X556627Y560578D02*
X560973Y560578D01*
X564987Y562241D01*
X568059Y565313D01*
X569722Y569327D01*
X569722Y573673D01*
X568059Y577687D01*
X564987Y580759D01*
X560973Y582422D01*
X556627Y582422D01*
X552613Y580759D01*
X549541Y577687D01*
X547878Y573673D01*
X547878Y569327D01*
X549541Y565313D01*
X552613Y562241D01*
X556627Y560578D01*
G37*
G36*
X328027Y179578D02*
X332373Y179578D01*
X336387Y181241D01*
X339459Y184313D01*
X341122Y188327D01*
X341122Y192673D01*
X339459Y196687D01*
X336387Y199759D01*
X333464Y200970D01*
X333226Y201126D01*
X333054Y201377D01*
X332994Y201674D01*
X332994Y214427D01*
X333050Y214713D01*
X333217Y214966D01*
X350184Y231933D01*
X350426Y232096D01*
X350723Y232156D01*
X502807Y232156D01*
X561594Y290943D01*
X561594Y306326D01*
X561647Y306607D01*
X561813Y306861D01*
X562064Y307030D01*
X564987Y308241D01*
X568059Y311313D01*
X569722Y315327D01*
X569722Y319673D01*
X568059Y323687D01*
X564987Y326759D01*
X562064Y327970D01*
X561826Y328126D01*
X561654Y328377D01*
X561594Y328674D01*
X561594Y528207D01*
X536417Y553384D01*
X536254Y553626D01*
X536194Y553923D01*
X536194Y560326D01*
X536247Y560607D01*
X536413Y560861D01*
X536664Y561030D01*
X539587Y562241D01*
X542659Y565313D01*
X544322Y569327D01*
X544322Y573673D01*
X542659Y577687D01*
X539587Y580759D01*
X535573Y582422D01*
X531227Y582422D01*
X527213Y580759D01*
X524141Y577687D01*
X522478Y573673D01*
X522478Y569327D01*
X524141Y565313D01*
X527213Y562241D01*
X530136Y561030D01*
X530374Y560874D01*
X530546Y560624D01*
X530606Y560326D01*
X530606Y551293D01*
X555783Y526116D01*
X555946Y525874D01*
X556006Y525577D01*
X556006Y328674D01*
X555953Y328393D01*
X555787Y328139D01*
X555536Y327970D01*
X552613Y326759D01*
X549541Y323687D01*
X547878Y319673D01*
X547878Y315327D01*
X549541Y311313D01*
X552613Y308241D01*
X555536Y307030D01*
X555774Y306874D01*
X555946Y306624D01*
X556006Y306326D01*
X556006Y293573D01*
X555950Y293287D01*
X555783Y293034D01*
X500716Y237967D01*
X500474Y237804D01*
X500177Y237744D01*
X348093Y237744D01*
X327406Y217057D01*
X327406Y201674D01*
X327353Y201393D01*
X327187Y201139D01*
X326936Y200970D01*
X324013Y199759D01*
X320941Y196687D01*
X319278Y192673D01*
X319278Y188327D01*
X320941Y184313D01*
X324013Y181241D01*
X328027Y179578D01*
G37*
G36*
X505827Y560578D02*
X510173Y560578D01*
X514187Y562241D01*
X517259Y565313D01*
X518922Y569327D01*
X518922Y573673D01*
X517259Y577687D01*
X514187Y580759D01*
X510173Y582422D01*
X505827Y582422D01*
X501813Y580759D01*
X498741Y577687D01*
X497078Y573673D01*
X497078Y569327D01*
X498741Y565313D01*
X501813Y562241D01*
X505827Y560578D01*
G37*
G36*
X455027Y560578D02*
X459373Y560578D01*
X463387Y562241D01*
X466459Y565313D01*
X468122Y569327D01*
X468122Y573673D01*
X466459Y577687D01*
X463387Y580759D01*
X459373Y582422D01*
X455027Y582422D01*
X451013Y580759D01*
X447941Y577687D01*
X446278Y573673D01*
X446278Y569327D01*
X447941Y565313D01*
X451013Y562241D01*
X455027Y560578D01*
G37*
G36*
X429627Y560578D02*
X433973Y560578D01*
X437987Y562241D01*
X441059Y565313D01*
X442722Y569327D01*
X442722Y573673D01*
X441059Y577687D01*
X437987Y580759D01*
X433973Y582422D01*
X429627Y582422D01*
X425613Y580759D01*
X422541Y577687D01*
X420878Y573673D01*
X420878Y569327D01*
X422541Y565313D01*
X425613Y562241D01*
X429627Y560578D01*
G37*
G36*
X404227Y560578D02*
X408573Y560578D01*
X412587Y562241D01*
X415659Y565313D01*
X417322Y569327D01*
X417322Y573673D01*
X415659Y577687D01*
X412587Y580759D01*
X408573Y582422D01*
X404227Y582422D01*
X400213Y580759D01*
X397141Y577687D01*
X395478Y573673D01*
X395478Y569327D01*
X397141Y565313D01*
X400213Y562241D01*
X404227Y560578D01*
G37*
G36*
X378827Y560578D02*
X383173Y560578D01*
X387187Y562241D01*
X390259Y565313D01*
X391922Y569327D01*
X391922Y573673D01*
X390259Y577687D01*
X387187Y580759D01*
X383173Y582422D01*
X378827Y582422D01*
X374813Y580759D01*
X371741Y577687D01*
X370078Y573673D01*
X370078Y569327D01*
X371741Y565313D01*
X374813Y562241D01*
X378827Y560578D01*
G37*
G36*
X353427Y560578D02*
X357773Y560578D01*
X361787Y562241D01*
X364859Y565313D01*
X366522Y569327D01*
X366522Y573673D01*
X364859Y577687D01*
X361787Y580759D01*
X357773Y582422D01*
X353427Y582422D01*
X349413Y580759D01*
X346341Y577687D01*
X344678Y573673D01*
X344678Y569327D01*
X346341Y565313D01*
X349413Y562241D01*
X353427Y560578D01*
G37*
G36*
X328027Y560578D02*
X332373Y560578D01*
X336387Y562241D01*
X339459Y565313D01*
X341122Y569327D01*
X341122Y573673D01*
X339459Y577687D01*
X336387Y580759D01*
X332373Y582422D01*
X328027Y582422D01*
X324013Y580759D01*
X320941Y577687D01*
X319278Y573673D01*
X319278Y569327D01*
X320941Y565313D01*
X324013Y562241D01*
X328027Y560578D01*
G37*
G36*
X302627Y560578D02*
X306973Y560578D01*
X310987Y562241D01*
X314059Y565313D01*
X315722Y569327D01*
X315722Y573673D01*
X314059Y577687D01*
X310987Y580759D01*
X306973Y582422D01*
X302627Y582422D01*
X298613Y580759D01*
X295541Y577687D01*
X293878Y573673D01*
X293878Y569327D01*
X295541Y565313D01*
X298613Y562241D01*
X302627Y560578D01*
G37*
G36*
X277227Y560578D02*
X281573Y560578D01*
X285587Y562241D01*
X288659Y565313D01*
X290322Y569327D01*
X290322Y573673D01*
X288659Y577687D01*
X285587Y580759D01*
X281573Y582422D01*
X277227Y582422D01*
X273213Y580759D01*
X270141Y577687D01*
X268478Y573673D01*
X268478Y569327D01*
X270141Y565313D01*
X273213Y562241D01*
X277227Y560578D01*
G37*
G36*
X251827Y560578D02*
X256173Y560578D01*
X260187Y562241D01*
X263259Y565313D01*
X264922Y569327D01*
X264922Y573673D01*
X263259Y577687D01*
X260187Y580759D01*
X256173Y582422D01*
X251827Y582422D01*
X247813Y580759D01*
X244741Y577687D01*
X243078Y573673D01*
X243078Y569327D01*
X244741Y565313D01*
X247813Y562241D01*
X251827Y560578D01*
G37*
G36*
X226427Y560578D02*
X230773Y560578D01*
X234787Y562241D01*
X237859Y565313D01*
X239522Y569327D01*
X239522Y573673D01*
X237859Y577687D01*
X234787Y580759D01*
X230773Y582422D01*
X226427Y582422D01*
X222413Y580759D01*
X219341Y577687D01*
X217678Y573673D01*
X217678Y569327D01*
X219341Y565313D01*
X222413Y562241D01*
X226427Y560578D01*
G37*
G36*
X201027Y560578D02*
X205373Y560578D01*
X209387Y562241D01*
X212459Y565313D01*
X214122Y569327D01*
X214122Y573673D01*
X212459Y577687D01*
X209387Y580759D01*
X205373Y582422D01*
X201027Y582422D01*
X197013Y580759D01*
X193941Y577687D01*
X192278Y573673D01*
X192278Y569327D01*
X193941Y565313D01*
X197013Y562241D01*
X201027Y560578D01*
G37*
G36*
X175627Y560578D02*
X179973Y560578D01*
X183987Y562241D01*
X187059Y565313D01*
X188722Y569327D01*
X188722Y573673D01*
X187059Y577687D01*
X183987Y580759D01*
X179973Y582422D01*
X175627Y582422D01*
X171613Y580759D01*
X168541Y577687D01*
X166878Y573673D01*
X166878Y569327D01*
X168541Y565313D01*
X171613Y562241D01*
X175627Y560578D01*
G37*
G36*
X483362Y559562D02*
X484975Y559562D01*
X489362Y561379D01*
X492721Y564738D01*
X494538Y569125D01*
X494538Y570738D01*
X483362Y570738D01*
X483362Y559562D01*
G37*
G36*
X480225Y559562D02*
X481838Y559562D01*
X481838Y570738D01*
X470662Y570738D01*
X470662Y569125D01*
X472479Y564738D01*
X475838Y561379D01*
X480225Y559562D01*
G37*
G36*
X429627Y357378D02*
X433973Y357378D01*
X437987Y359041D01*
X441059Y362113D01*
X442722Y366127D01*
X442722Y370473D01*
X441059Y374487D01*
X437987Y377559D01*
X433973Y379222D01*
X429627Y379222D01*
X425613Y377559D01*
X422541Y374487D01*
X420878Y370473D01*
X420878Y366127D01*
X422541Y362113D01*
X425613Y359041D01*
X429627Y357378D01*
G37*
G36*
X404227Y357378D02*
X408573Y357378D01*
X412587Y359041D01*
X415659Y362113D01*
X417322Y366127D01*
X417322Y370473D01*
X415659Y374487D01*
X412587Y377559D01*
X408573Y379222D01*
X404227Y379222D01*
X400213Y377559D01*
X397141Y374487D01*
X395478Y370473D01*
X395478Y366127D01*
X397141Y362113D01*
X400213Y359041D01*
X404227Y357378D01*
G37*
G36*
X378827Y357378D02*
X383173Y357378D01*
X387187Y359041D01*
X390259Y362113D01*
X391922Y366127D01*
X391922Y370473D01*
X390259Y374487D01*
X387187Y377559D01*
X383173Y379222D01*
X378827Y379222D01*
X374813Y377559D01*
X371741Y374487D01*
X370078Y370473D01*
X370078Y366127D01*
X371741Y362113D01*
X374813Y359041D01*
X378827Y357378D01*
G37*
G36*
X353427Y357378D02*
X357773Y357378D01*
X361787Y359041D01*
X364859Y362113D01*
X366522Y366127D01*
X366522Y370473D01*
X364859Y374487D01*
X361787Y377559D01*
X357773Y379222D01*
X353427Y379222D01*
X349413Y377559D01*
X346341Y374487D01*
X344678Y370473D01*
X344678Y366127D01*
X346341Y362113D01*
X349413Y359041D01*
X353427Y357378D01*
G37*
G36*
X328027Y357378D02*
X332373Y357378D01*
X336387Y359041D01*
X339459Y362113D01*
X341122Y366127D01*
X341122Y370473D01*
X339459Y374487D01*
X336387Y377559D01*
X332373Y379222D01*
X328027Y379222D01*
X324013Y377559D01*
X320941Y374487D01*
X319278Y370473D01*
X319278Y366127D01*
X320941Y362113D01*
X324013Y359041D01*
X328027Y357378D01*
G37*
G36*
X302627Y357378D02*
X306973Y357378D01*
X310987Y359041D01*
X314059Y362113D01*
X315722Y366127D01*
X315722Y370473D01*
X314059Y374487D01*
X310987Y377559D01*
X306973Y379222D01*
X302627Y379222D01*
X298613Y377559D01*
X295541Y374487D01*
X293878Y370473D01*
X293878Y366127D01*
X295541Y362113D01*
X298613Y359041D01*
X302627Y357378D01*
G37*
G36*
X277227Y357378D02*
X281573Y357378D01*
X285587Y359041D01*
X288659Y362113D01*
X290322Y366127D01*
X290322Y370473D01*
X288659Y374487D01*
X285587Y377559D01*
X281573Y379222D01*
X277227Y379222D01*
X273213Y377559D01*
X270141Y374487D01*
X268478Y370473D01*
X268478Y366127D01*
X270141Y362113D01*
X273213Y359041D01*
X277227Y357378D01*
G37*
G36*
X251827Y357378D02*
X256173Y357378D01*
X260187Y359041D01*
X263259Y362113D01*
X264922Y366127D01*
X264922Y370473D01*
X263259Y374487D01*
X260187Y377559D01*
X256173Y379222D01*
X251827Y379222D01*
X247813Y377559D01*
X244741Y374487D01*
X243078Y370473D01*
X243078Y366127D01*
X244741Y362113D01*
X247813Y359041D01*
X251827Y357378D01*
G37*
G36*
X226427Y357378D02*
X230773Y357378D01*
X234787Y359041D01*
X237859Y362113D01*
X239522Y366127D01*
X239522Y370473D01*
X237859Y374487D01*
X234787Y377559D01*
X230773Y379222D01*
X226427Y379222D01*
X222413Y377559D01*
X219341Y374487D01*
X217678Y370473D01*
X217678Y366127D01*
X219341Y362113D01*
X222413Y359041D01*
X226427Y357378D01*
G37*
G36*
X201027Y357378D02*
X205373Y357378D01*
X209387Y359041D01*
X212459Y362113D01*
X214122Y366127D01*
X214122Y370473D01*
X212459Y374487D01*
X209387Y377559D01*
X205373Y379222D01*
X201027Y379222D01*
X197013Y377559D01*
X193941Y374487D01*
X192278Y370473D01*
X192278Y366127D01*
X193941Y362113D01*
X197013Y359041D01*
X201027Y357378D01*
G37*
G36*
X175627Y357378D02*
X179973Y357378D01*
X183987Y359041D01*
X187059Y362113D01*
X188722Y366127D01*
X188722Y370473D01*
X187059Y374487D01*
X183987Y377559D01*
X179973Y379222D01*
X175627Y379222D01*
X171613Y377559D01*
X168541Y374487D01*
X166878Y370473D01*
X166878Y366127D01*
X168541Y362113D01*
X171613Y359041D01*
X175627Y357378D01*
G37*
G36*
X455027Y357378D02*
X459373Y357378D01*
X463387Y359041D01*
X466459Y362113D01*
X468122Y366127D01*
X468122Y370473D01*
X466459Y374487D01*
X463387Y377559D01*
X459373Y379222D01*
X455027Y379222D01*
X451013Y377559D01*
X447941Y374487D01*
X446278Y370473D01*
X446278Y366127D01*
X447941Y362113D01*
X451013Y359041D01*
X455027Y357378D01*
G37*
G36*
X572262Y318262D02*
X583438Y318262D01*
X583438Y329438D01*
X581825Y329438D01*
X577438Y327621D01*
X574079Y324262D01*
X572262Y319875D01*
X572262Y318262D01*
G37*
G36*
X648462Y318262D02*
X659638Y318262D01*
X659638Y329438D01*
X658025Y329438D01*
X653638Y327621D01*
X650279Y324262D01*
X648462Y319875D01*
X648462Y318262D01*
G37*
G36*
X661162Y318262D02*
X672338Y318262D01*
X672338Y319875D01*
X670521Y324262D01*
X667162Y327621D01*
X662775Y329438D01*
X661162Y329438D01*
X661162Y318262D01*
G37*
G36*
X584962Y318262D02*
X596138Y318262D01*
X596138Y319875D01*
X594321Y324262D01*
X590962Y327621D01*
X586575Y329438D01*
X584962Y329438D01*
X584962Y318262D01*
G37*
G36*
X531227Y306578D02*
X535573Y306578D01*
X539587Y308241D01*
X542659Y311313D01*
X544322Y315327D01*
X544322Y319673D01*
X542659Y323687D01*
X539587Y326759D01*
X535573Y328422D01*
X531227Y328422D01*
X527213Y326759D01*
X524141Y323687D01*
X522478Y319673D01*
X522478Y315327D01*
X524141Y311313D01*
X527213Y308241D01*
X531227Y306578D01*
G37*
G36*
X480427Y306578D02*
X484773Y306578D01*
X488787Y308241D01*
X491859Y311313D01*
X493522Y315327D01*
X493522Y319673D01*
X491859Y323687D01*
X488787Y326759D01*
X484773Y328422D01*
X480427Y328422D01*
X476413Y326759D01*
X473341Y323687D01*
X471678Y319673D01*
X471678Y315327D01*
X473341Y311313D01*
X476413Y308241D01*
X480427Y306578D01*
G37*
G36*
X455027Y306578D02*
X459373Y306578D01*
X463387Y308241D01*
X466459Y311313D01*
X468122Y315327D01*
X468122Y319673D01*
X466459Y323687D01*
X463387Y326759D01*
X459373Y328422D01*
X455027Y328422D01*
X451013Y326759D01*
X447941Y323687D01*
X446278Y319673D01*
X446278Y315327D01*
X447941Y311313D01*
X451013Y308241D01*
X455027Y306578D01*
G37*
G36*
X429627Y306578D02*
X433973Y306578D01*
X437987Y308241D01*
X441059Y311313D01*
X442722Y315327D01*
X442722Y319673D01*
X441059Y323687D01*
X437987Y326759D01*
X433973Y328422D01*
X429627Y328422D01*
X425613Y326759D01*
X422541Y323687D01*
X420878Y319673D01*
X420878Y315327D01*
X422541Y311313D01*
X425613Y308241D01*
X429627Y306578D01*
G37*
G36*
X404227Y306578D02*
X408573Y306578D01*
X412587Y308241D01*
X415659Y311313D01*
X417322Y315327D01*
X417322Y319673D01*
X415659Y323687D01*
X412587Y326759D01*
X408573Y328422D01*
X404227Y328422D01*
X400213Y326759D01*
X397141Y323687D01*
X395478Y319673D01*
X395478Y315327D01*
X397141Y311313D01*
X400213Y308241D01*
X404227Y306578D01*
G37*
G36*
X378827Y306578D02*
X383173Y306578D01*
X387187Y308241D01*
X390259Y311313D01*
X391922Y315327D01*
X391922Y319673D01*
X390259Y323687D01*
X387187Y326759D01*
X383173Y328422D01*
X378827Y328422D01*
X374813Y326759D01*
X371741Y323687D01*
X370078Y319673D01*
X370078Y315327D01*
X371741Y311313D01*
X374813Y308241D01*
X378827Y306578D01*
G37*
G36*
X353427Y306578D02*
X357773Y306578D01*
X361787Y308241D01*
X364859Y311313D01*
X366522Y315327D01*
X366522Y319673D01*
X364859Y323687D01*
X361787Y326759D01*
X357773Y328422D01*
X353427Y328422D01*
X349413Y326759D01*
X346341Y323687D01*
X344678Y319673D01*
X344678Y315327D01*
X346341Y311313D01*
X349413Y308241D01*
X353427Y306578D01*
G37*
G36*
X328027Y306578D02*
X332373Y306578D01*
X336387Y308241D01*
X339459Y311313D01*
X341122Y315327D01*
X341122Y319673D01*
X339459Y323687D01*
X336387Y326759D01*
X332373Y328422D01*
X328027Y328422D01*
X324013Y326759D01*
X320941Y323687D01*
X319278Y319673D01*
X319278Y315327D01*
X320941Y311313D01*
X324013Y308241D01*
X328027Y306578D01*
G37*
G36*
X302627Y306578D02*
X306973Y306578D01*
X310987Y308241D01*
X314059Y311313D01*
X315722Y315327D01*
X315722Y319673D01*
X314059Y323687D01*
X310987Y326759D01*
X306973Y328422D01*
X302627Y328422D01*
X298613Y326759D01*
X295541Y323687D01*
X293878Y319673D01*
X293878Y315327D01*
X295541Y311313D01*
X298613Y308241D01*
X302627Y306578D01*
G37*
G36*
X683627Y306578D02*
X687973Y306578D01*
X691987Y308241D01*
X695059Y311313D01*
X696722Y315327D01*
X696722Y319673D01*
X695059Y323687D01*
X691987Y326759D01*
X687973Y328422D01*
X683627Y328422D01*
X679613Y326759D01*
X676541Y323687D01*
X674878Y319673D01*
X674878Y315327D01*
X676541Y311313D01*
X679613Y308241D01*
X683627Y306578D01*
G37*
G36*
X632827Y306578D02*
X637173Y306578D01*
X641187Y308241D01*
X644259Y311313D01*
X645922Y315327D01*
X645922Y319673D01*
X644259Y323687D01*
X641187Y326759D01*
X637173Y328422D01*
X632827Y328422D01*
X628813Y326759D01*
X625741Y323687D01*
X624078Y319673D01*
X624078Y315327D01*
X625741Y311313D01*
X628813Y308241D01*
X632827Y306578D01*
G37*
G36*
X607427Y306578D02*
X611773Y306578D01*
X615787Y308241D01*
X618859Y311313D01*
X620522Y315327D01*
X620522Y319673D01*
X618859Y323687D01*
X615787Y326759D01*
X611773Y328422D01*
X607427Y328422D01*
X603413Y326759D01*
X600341Y323687D01*
X598678Y319673D01*
X598678Y315327D01*
X600341Y311313D01*
X603413Y308241D01*
X607427Y306578D01*
G37*
G36*
X661162Y305562D02*
X662775Y305562D01*
X667162Y307379D01*
X670521Y310738D01*
X672338Y315125D01*
X672338Y316738D01*
X661162Y316738D01*
X661162Y305562D01*
G37*
G36*
X658025Y305562D02*
X659638Y305562D01*
X659638Y316738D01*
X648462Y316738D01*
X648462Y315125D01*
X650279Y310738D01*
X653638Y307379D01*
X658025Y305562D01*
G37*
G36*
X584962Y305562D02*
X586575Y305562D01*
X590962Y307379D01*
X594321Y310738D01*
X596138Y315125D01*
X596138Y316738D01*
X584962Y316738D01*
X584962Y305562D01*
G37*
G36*
X581825Y305562D02*
X583438Y305562D01*
X583438Y316738D01*
X572262Y316738D01*
X572262Y315125D01*
X574079Y310738D01*
X577438Y307379D01*
X581825Y305562D01*
G37*
G36*
X220554Y139626D02*
X223946Y139626D01*
X227078Y140924D01*
X229476Y143322D01*
X230774Y146454D01*
X230774Y149846D01*
X230126Y151410D01*
X230068Y151689D01*
X230124Y151987D01*
X230291Y152240D01*
X240134Y162083D01*
X240376Y162246D01*
X240673Y162306D01*
X458357Y162306D01*
X476675Y180623D01*
X476911Y180784D01*
X477207Y180846D01*
X477505Y180789D01*
X480427Y179578D01*
X484773Y179578D01*
X487695Y180789D01*
X487974Y180846D01*
X488273Y180791D01*
X488525Y180623D01*
X506843Y162306D01*
X674257Y162306D01*
X688594Y176643D01*
X688594Y179326D01*
X688647Y179607D01*
X688813Y179861D01*
X689064Y180030D01*
X691987Y181241D01*
X695059Y184313D01*
X696722Y188327D01*
X696722Y192673D01*
X695059Y196687D01*
X691987Y199759D01*
X687973Y201422D01*
X683627Y201422D01*
X679613Y199759D01*
X676541Y196687D01*
X674878Y192673D01*
X674878Y188327D01*
X676541Y184313D01*
X679613Y181241D01*
X682536Y180030D01*
X682774Y179874D01*
X682946Y179624D01*
X683006Y179326D01*
X683006Y179273D01*
X682950Y178987D01*
X682783Y178734D01*
X672166Y168117D01*
X671924Y167954D01*
X671627Y167894D01*
X509473Y167894D01*
X509187Y167950D01*
X508934Y168117D01*
X492477Y184575D01*
X492316Y184811D01*
X492254Y185107D01*
X492312Y185405D01*
X493522Y188327D01*
X493522Y192673D01*
X491859Y196687D01*
X488787Y199759D01*
X484773Y201422D01*
X480427Y201422D01*
X476413Y199759D01*
X473341Y196687D01*
X471678Y192673D01*
X471678Y188327D01*
X472889Y185405D01*
X472946Y185126D01*
X472891Y184827D01*
X472723Y184575D01*
X456266Y168117D01*
X456024Y167954D01*
X455727Y167894D01*
X238043Y167894D01*
X226340Y156191D01*
X226104Y156031D01*
X225807Y155968D01*
X225510Y156026D01*
X223946Y156674D01*
X220554Y156674D01*
X217505Y155411D01*
X217226Y155353D01*
X216928Y155409D01*
X216675Y155576D01*
X193517Y178734D01*
X193354Y178976D01*
X193294Y179273D01*
X193294Y269545D01*
X193350Y269831D01*
X193517Y270084D01*
X204947Y281514D01*
X205167Y281667D01*
X205462Y281737D01*
X205761Y281686D01*
X206016Y281522D01*
X206188Y281272D01*
X206248Y280975D01*
X206248Y274959D01*
X207141Y274066D01*
X228723Y274066D01*
X229616Y274959D01*
X229616Y296541D01*
X228723Y297434D01*
X207141Y297434D01*
X206248Y296541D01*
X206248Y289306D01*
X206197Y289031D01*
X206033Y288776D01*
X205783Y288604D01*
X205486Y288544D01*
X204075Y288544D01*
X187706Y272175D01*
X187706Y176643D01*
X213594Y150755D01*
X213754Y150519D01*
X213817Y150222D01*
X213759Y149925D01*
X213726Y149846D01*
X213726Y146454D01*
X215024Y143322D01*
X217422Y140924D01*
X220554Y139626D01*
G37*
G36*
X205232Y236512D02*
X217170Y236512D01*
X217170Y248450D01*
X215406Y248450D01*
X210738Y246517D01*
X207165Y242944D01*
X205232Y238276D01*
X205232Y236512D01*
G37*
G36*
X218694Y236512D02*
X230632Y236512D01*
X230632Y238276D01*
X228699Y242944D01*
X225126Y246517D01*
X220458Y248450D01*
X218694Y248450D01*
X218694Y236512D01*
G37*
G36*
X218694Y223050D02*
X220458Y223050D01*
X225126Y224983D01*
X228699Y228556D01*
X230632Y233224D01*
X230632Y234988D01*
X218694Y234988D01*
X218694Y223050D01*
G37*
G36*
X215406Y223050D02*
X217170Y223050D01*
X217170Y234988D01*
X205232Y234988D01*
X205232Y233224D01*
X207165Y228556D01*
X210738Y224983D01*
X215406Y223050D01*
G37*
G36*
X445262Y191262D02*
X456438Y191262D01*
X456438Y202438D01*
X454825Y202438D01*
X450438Y200621D01*
X447079Y197262D01*
X445262Y192875D01*
X445262Y191262D01*
G37*
G36*
X292862Y191262D02*
X304038Y191262D01*
X304038Y202438D01*
X302425Y202438D01*
X298038Y200621D01*
X294679Y197262D01*
X292862Y192875D01*
X292862Y191262D01*
G37*
G36*
X305562Y191262D02*
X316738Y191262D01*
X316738Y192875D01*
X314921Y197262D01*
X311562Y200621D01*
X307175Y202438D01*
X305562Y202438D01*
X305562Y191262D01*
G37*
G36*
X457962Y191262D02*
X469138Y191262D01*
X469138Y192875D01*
X467321Y197262D01*
X463962Y200621D01*
X459575Y202438D01*
X457962Y202438D01*
X457962Y191262D01*
G37*
G36*
X661162Y191262D02*
X672338Y191262D01*
X672338Y192875D01*
X670521Y197262D01*
X667162Y200621D01*
X662775Y202438D01*
X661162Y202438D01*
X661162Y191262D01*
G37*
G36*
X648462Y191262D02*
X659638Y191262D01*
X659638Y202438D01*
X658025Y202438D01*
X653638Y200621D01*
X650279Y197262D01*
X648462Y192875D01*
X648462Y191262D01*
G37*
G36*
X404227Y179578D02*
X408573Y179578D01*
X412587Y181241D01*
X415659Y184313D01*
X417322Y188327D01*
X417322Y192673D01*
X415659Y196687D01*
X412587Y199759D01*
X408573Y201422D01*
X404227Y201422D01*
X400213Y199759D01*
X397141Y196687D01*
X395478Y192673D01*
X395478Y188327D01*
X397141Y184313D01*
X400213Y181241D01*
X404227Y179578D01*
G37*
G36*
X378827Y179578D02*
X383173Y179578D01*
X387187Y181241D01*
X390259Y184313D01*
X391922Y188327D01*
X391922Y192673D01*
X390259Y196687D01*
X387187Y199759D01*
X383173Y201422D01*
X378827Y201422D01*
X374813Y199759D01*
X371741Y196687D01*
X370078Y192673D01*
X370078Y188327D01*
X371741Y184313D01*
X374813Y181241D01*
X378827Y179578D01*
G37*
G36*
X353427Y179578D02*
X357773Y179578D01*
X361787Y181241D01*
X364859Y184313D01*
X366522Y188327D01*
X366522Y192673D01*
X364859Y196687D01*
X361787Y199759D01*
X357773Y201422D01*
X353427Y201422D01*
X349413Y199759D01*
X346341Y196687D01*
X344678Y192673D01*
X344678Y188327D01*
X346341Y184313D01*
X349413Y181241D01*
X353427Y179578D01*
G37*
G36*
X632827Y179578D02*
X637173Y179578D01*
X641187Y181241D01*
X644259Y184313D01*
X645922Y188327D01*
X645922Y192673D01*
X644259Y196687D01*
X641187Y199759D01*
X637173Y201422D01*
X632827Y201422D01*
X628813Y199759D01*
X625741Y196687D01*
X624078Y192673D01*
X624078Y188327D01*
X625741Y184313D01*
X628813Y181241D01*
X632827Y179578D01*
G37*
G36*
X607427Y179578D02*
X611773Y179578D01*
X615787Y181241D01*
X618859Y184313D01*
X620522Y188327D01*
X620522Y192673D01*
X618859Y196687D01*
X615787Y199759D01*
X611773Y201422D01*
X607427Y201422D01*
X603413Y199759D01*
X600341Y196687D01*
X598678Y192673D01*
X598678Y188327D01*
X600341Y184313D01*
X603413Y181241D01*
X607427Y179578D01*
G37*
G36*
X582027Y179578D02*
X586373Y179578D01*
X590387Y181241D01*
X593459Y184313D01*
X595122Y188327D01*
X595122Y192673D01*
X593459Y196687D01*
X590387Y199759D01*
X586373Y201422D01*
X582027Y201422D01*
X578013Y199759D01*
X574941Y196687D01*
X573278Y192673D01*
X573278Y188327D01*
X574941Y184313D01*
X578013Y181241D01*
X582027Y179578D01*
G37*
G36*
X556627Y179578D02*
X560973Y179578D01*
X564987Y181241D01*
X568059Y184313D01*
X569722Y188327D01*
X569722Y192673D01*
X568059Y196687D01*
X564987Y199759D01*
X560973Y201422D01*
X556627Y201422D01*
X552613Y199759D01*
X549541Y196687D01*
X547878Y192673D01*
X547878Y188327D01*
X549541Y184313D01*
X552613Y181241D01*
X556627Y179578D01*
G37*
G36*
X531227Y179578D02*
X535573Y179578D01*
X539587Y181241D01*
X542659Y184313D01*
X544322Y188327D01*
X544322Y192673D01*
X542659Y196687D01*
X539587Y199759D01*
X535573Y201422D01*
X531227Y201422D01*
X527213Y199759D01*
X524141Y196687D01*
X522478Y192673D01*
X522478Y188327D01*
X524141Y184313D01*
X527213Y181241D01*
X531227Y179578D01*
G37*
G36*
X429627Y179578D02*
X433973Y179578D01*
X437987Y181241D01*
X441059Y184313D01*
X442722Y188327D01*
X442722Y192673D01*
X441059Y196687D01*
X437987Y199759D01*
X433973Y201422D01*
X429627Y201422D01*
X425613Y199759D01*
X422541Y196687D01*
X420878Y192673D01*
X420878Y188327D01*
X422541Y184313D01*
X425613Y181241D01*
X429627Y179578D01*
G37*
G36*
X661162Y178562D02*
X662775Y178562D01*
X667162Y180379D01*
X670521Y183738D01*
X672338Y188125D01*
X672338Y189738D01*
X661162Y189738D01*
X661162Y178562D01*
G37*
G36*
X658025Y178562D02*
X659638Y178562D01*
X659638Y189738D01*
X648462Y189738D01*
X648462Y188125D01*
X650279Y183738D01*
X653638Y180379D01*
X658025Y178562D01*
G37*
G36*
X457962Y178562D02*
X459575Y178562D01*
X463962Y180379D01*
X467321Y183738D01*
X469138Y188125D01*
X469138Y189738D01*
X457962Y189738D01*
X457962Y178562D01*
G37*
G36*
X454825Y178562D02*
X456438Y178562D01*
X456438Y189738D01*
X445262Y189738D01*
X445262Y188125D01*
X447079Y183738D01*
X450438Y180379D01*
X454825Y178562D01*
G37*
G36*
X305562Y178562D02*
X307175Y178562D01*
X311562Y180379D01*
X314921Y183738D01*
X316738Y188125D01*
X316738Y189738D01*
X305562Y189738D01*
X305562Y178562D01*
G37*
G36*
X302425Y178562D02*
X304038Y178562D01*
X304038Y189738D01*
X292862Y189738D01*
X292862Y188125D01*
X294679Y183738D01*
X298038Y180379D01*
X302425Y178562D01*
G37*
G36*
X619976Y101816D02*
X624624Y101816D01*
X628918Y103595D01*
X632205Y106882D01*
X633984Y111176D01*
X633984Y115824D01*
X632205Y120118D01*
X628918Y123405D01*
X624624Y125184D01*
X619976Y125184D01*
X615682Y123405D01*
X612395Y120118D01*
X610616Y115824D01*
X610616Y111176D01*
X612395Y106882D01*
X615682Y103595D01*
X619976Y101816D01*
G37*
G36*
X517576Y89916D02*
X522224Y89916D01*
X526518Y91695D01*
X529805Y94982D01*
X531584Y99276D01*
X531584Y103924D01*
X529805Y108218D01*
X526518Y111505D01*
X522224Y113284D01*
X517576Y113284D01*
X513282Y111505D01*
X509995Y108218D01*
X508216Y103924D01*
X508216Y99276D01*
X509995Y94982D01*
X513282Y91695D01*
X517576Y89916D01*
G37*
G36*
X459109Y89916D02*
X480691Y89916D01*
X481584Y90809D01*
X481584Y112391D01*
X480691Y113284D01*
X459109Y113284D01*
X458216Y112391D01*
X458216Y90809D01*
X459109Y89916D01*
G37*
G36*
X381432Y89916D02*
X386080Y89916D01*
X390374Y91695D01*
X393661Y94982D01*
X395440Y99276D01*
X395440Y103924D01*
X393661Y108218D01*
X390374Y111505D01*
X386080Y113284D01*
X381432Y113284D01*
X377138Y111505D01*
X373851Y108218D01*
X372072Y103924D01*
X372072Y99276D01*
X373851Y94982D01*
X377138Y91695D01*
X381432Y89916D01*
G37*
G36*
X322965Y89916D02*
X344547Y89916D01*
X345440Y90809D01*
X345440Y112391D01*
X344547Y113284D01*
X322965Y113284D01*
X322072Y112391D01*
X322072Y90809D01*
X322965Y89916D01*
G37*
G36*
X212710Y93912D02*
X221488Y93912D01*
X221488Y102690D01*
X220352Y102690D01*
X216846Y101238D01*
X214162Y98554D01*
X212710Y95048D01*
X212710Y93912D01*
G37*
G36*
X223012Y93912D02*
X231790Y93912D01*
X231790Y95048D01*
X230338Y98554D01*
X227654Y101238D01*
X224148Y102690D01*
X223012Y102690D01*
X223012Y93912D01*
G37*
G36*
X223012Y83610D02*
X224148Y83610D01*
X227654Y85062D01*
X230338Y87746D01*
X231790Y91252D01*
X231790Y92388D01*
X223012Y92388D01*
X223012Y83610D01*
G37*
G36*
X220352Y83610D02*
X221488Y83610D01*
X221488Y92388D01*
X212710Y92388D01*
X212710Y91252D01*
X214162Y87746D01*
X216846Y85062D01*
X220352Y83610D01*
G37*
G36*
X611509Y51816D02*
X633091Y51816D01*
X633984Y52709D01*
X633984Y74291D01*
X633091Y75184D01*
X611509Y75184D01*
X610616Y74291D01*
X610616Y52709D01*
X611509Y51816D01*
G37*
%LPD*%
D10*
X177800Y368300D03*
X203200Y368300D03*
X228600Y368300D03*
X254000Y368300D03*
X279400Y368300D03*
X304800Y368300D03*
X330200Y368300D03*
X355600Y368300D03*
X381000Y368300D03*
X406400Y368300D03*
X431800Y368300D03*
X457200Y368300D03*
X177800Y571500D03*
X203200Y571500D03*
X228600Y571500D03*
X254000Y571500D03*
X279400Y571500D03*
X304800Y571500D03*
X330200Y571500D03*
X355600Y571500D03*
X381000Y571500D03*
X406400Y571500D03*
X431800Y571500D03*
X457200Y571500D03*
X482600Y571500D03*
X508000Y571500D03*
X533400Y571500D03*
X558800Y571500D03*
D11*
X333756Y101600D03*
D12*
X383756Y101600D03*
D11*
X469900Y101600D03*
D12*
X519900Y101600D03*
D11*
X622300Y63500D03*
D12*
X622300Y113500D03*
D11*
X217932Y285750D03*
D12*
X217932Y235750D03*
D10*
X685800Y317500D03*
X660400Y317500D03*
X635000Y317500D03*
X609600Y317500D03*
X584200Y317500D03*
X558800Y317500D03*
X533400Y317500D03*
X533400Y190500D03*
X558800Y190500D03*
X584200Y190500D03*
X609600Y190500D03*
X635000Y190500D03*
X660400Y190500D03*
X685800Y190500D03*
X482600Y317500D03*
X457200Y317500D03*
X431800Y317500D03*
X406400Y317500D03*
X381000Y317500D03*
X355600Y317500D03*
X330200Y317500D03*
X304800Y317500D03*
X304800Y190500D03*
X330200Y190500D03*
X355600Y190500D03*
X381000Y190500D03*
X406400Y190500D03*
X431800Y190500D03*
X457200Y190500D03*
X482600Y190500D03*
D13*
X222250Y148150D03*
X222250Y93150D03*
D14*
X558800Y527050D02*
X533400Y552450D01*
X533400Y571500D01*
X558800Y527050D02*
X558800Y317500D01*
X349250Y234950D02*
X330200Y215900D01*
X330200Y190500D01*
X349250Y234950D02*
X501650Y234950D01*
X558800Y292100D01*
X558800Y317500D01*
X482600Y190500D02*
X508000Y165100D01*
X673100Y165100D01*
X685800Y177800D02*
X685800Y190500D01*
X685800Y177800D02*
X673100Y165100D01*
X482600Y190500D02*
X457200Y165100D01*
X239200Y165100D01*
X222250Y148150D01*
X217932Y285750D02*
X205232Y285750D01*
X190500Y271018D01*
X190500Y177800D01*
X220150Y148150D01*
X222250Y148150D01*
M02*
